<svg version="1.1" viewBox="0 0 24 24" xmlns="http://www.w3.org/2000/svg">
    <style type="text/css" id="current-color-scheme">
.ColorScheme-Text{color:#232629}.ColorScheme-Highlight{color:#3daee9}
    </style>
 <defs>
  
 </defs>
 <path class="ColorScheme-Text" d="m18 16h-4.293l2.293-2.293-0.70703-0.70703-3.5 3.5 3.5 3.5 0.70703-0.70703-2.293-2.293h5.293v-1z" fill="currentColor"/>
 <path class="ColorScheme-Text" d="m8 4c-1.662 0-3 1.338-3 3v10c0 1.662 1.338 3 3 3h4v-1h-4c-1.108 0-2-0.892-2-2v-10c0-1.108 0.892-2 2-2h6v2c0 1.108 0.892 2 2 2h2v6h1v-7l-4-4z" fill="currentColor"/>
</svg>
